<?xml version="1.0" standalone="no"?><svg xmlns="http://www.w3.org/2000/svg" viewBox="0 0 1440 320"><path fill="#fafafa" fill-opacity="1" d="M0,64L16,85.3C32,107,64,149,96,154.7C128,160,160,128,192,144C224,160,256,224,288,256C320,288,352,288,384,266.7C416,245,448,203,480,197.3C512,192,544,224,576,208C608,192,640,128,672,128C704,128,736,192,768,208C800,224,832,192,864,176C896,160,928,160,960,181.3C992,203,1024,245,1056,245.3C1088,245,1120,203,1152,181.3C1184,160,1216,160,1248,176C1280,192,1312,224,1344,208C1376,192,1408,128,1424,96L1440,64L1440,0L1424,0C1408,0,1376,0,1344,0C1312,0,1280,0,1248,0C1216,0,1184,0,1152,0C1120,0,1088,0,1056,0C1024,0,992,0,960,0C928,0,896,0,864,0C832,0,800,0,768,0C736,0,704,0,672,0C640,0,608,0,576,0C544,0,512,0,480,0C448,0,416,0,384,0C352,0,320,0,288,0C256,0,224,0,192,0C160,0,128,0,96,0C64,0,32,0,16,0L0,0Z"></path></svg>